<svg width="200" height="200" viewBox="0 0 200 200" fill="none" xmlns="http://www.w3.org/2000/svg">
<path d="M29.5689 125.158C27.1834 122.283 6.54675 96.1605 16.1179 64.9676C20.8734 49.4705 30.9069 39.4727 38.4857 33.8127L41.0186 37.2056C33.9469 42.4882 24.5857 51.807 20.1653 66.2095C11.2441 95.2782 30.5919 119.761 32.8256 122.455L29.5689 125.158Z" fill="#011531"/>
<path d="M137.738 43.8842C135.735 47.3128 133.206 49.446 129.632 51.9901C120.93 58.1862 116.579 61.2843 112.65 61.7199C104.475 62.6312 102.451 56.9711 92.7527 57.7842C87.2289 58.2465 86.532 60.192 81.1445 61.3066C70.3247 63.5425 56.0785 59.2092 55.2364 53.844C53.8024 44.7151 90.2622 26.7521 108.712 34.3622C110.506 35.1015 112.86 36.3859 116.796 37.0559C129.103 39.1556 137.656 31.9923 140.059 34.9451C141.75 37.0202 138.781 42.1017 137.738 43.8842Z" fill="#5B85AA"/>
<path d="M161.285 36.5421C160.615 36.0128 159.891 35.6956 159.891 35.6956C159.17 35.3918 158.18 35.1439 156.885 35.1684C157.711 34.7641 159.235 33.8819 160.521 32.1709C162.094 30.0735 162.411 27.9292 162.493 27C162.525 27.6232 162.746 30.7056 165.232 32.6846C166.132 33.4039 167.059 33.759 167.749 33.9466C167.401 34.1276 166.95 34.3978 166.474 34.7843C166.474 34.7843 165.652 35.4566 165.067 36.3188C164.258 37.5004 163.811 39.9216 164.41 42.7517C164.316 42.2826 163.49 38.2821 161.285 36.5421Z" fill="#ABEFF4"/>
<path d="M172.375 47.0292C172.029 46.7545 171.654 46.5892 171.654 46.5892C171.281 46.4328 170.767 46.3055 170.097 46.3167C170.526 46.1067 171.314 45.651 171.98 44.7643C172.793 43.6787 172.958 42.5686 173 42.0861C173.016 42.41 173.132 44.0071 174.419 45.0323C174.886 45.4031 175.366 45.5885 175.721 45.6845C175.542 45.7784 175.308 45.9191 175.062 46.1179C175.062 46.1179 174.635 46.4663 174.332 46.913C173.916 47.5228 173.684 48.7781 173.992 50.2434C173.945 49.9999 173.516 47.9294 172.375 47.0292Z" fill="#ABEFF4"/>
<path d="M173.336 159.415C170.452 161.758 164.593 166.152 156.34 165.631C148.748 165.156 143.666 160.749 142.038 159.207C142.798 159.489 154.524 163.599 164.261 156.136C171.792 150.364 174.949 140.114 172.023 130.534C175.601 128.895 180.175 127.449 185.529 127.286C186.322 127.264 187.093 127.268 187.841 127.297C187.56 130.63 186.841 135.582 184.806 141.244C182.782 146.869 180.164 153.864 173.336 159.415Z" fill="#011531"/>
<path d="M103.387 59.6783C104.836 58.9568 106.286 58.2354 107.738 57.5116C110.939 61.4518 114.139 65.392 117.343 69.3321C117.818 70.5294 118.294 71.7243 118.772 72.9216C118.401 73.4755 117.823 74.1211 116.978 74.3623C115.763 74.7085 114.09 74.1858 110.948 70.9113C108.83 68.7089 105.917 65.1239 103.387 59.6783Z" fill="#FFD1C3"/>
<path d="M169.28 61.0162C167.832 60.2925 166.383 59.5688 164.931 58.8473C161.73 62.7875 158.529 66.7299 155.326 70.6678C154.85 71.865 154.374 73.06 153.896 74.255C154.267 74.8112 154.846 75.4567 155.69 75.698C156.905 76.042 158.578 75.5215 161.721 72.247C163.836 70.0468 166.751 66.4596 169.28 61.0162Z" fill="#FFD1C3"/>
<path d="M154.687 167.662C151.942 167.662 149.234 167.092 146.679 165.801C140.423 162.634 135.955 155.649 135.819 148.807C135.674 141.383 140.42 137.052 145.915 132.04C149.668 128.615 153.921 124.738 157.441 119.149C166.576 104.646 170.928 77.7485 157.26 66.8885C145.357 57.429 126.538 59.4639 119.482 67.7686C116.174 71.6618 116.605 75.6958 117.26 81.8003C117.7 85.8991 118.247 91.0007 117.657 97.2505C115.053 124.925 91.45 157.753 64.9255 158.6C56.2321 158.897 46.9692 155.464 38.144 148.725L40.1588 146.089C48.3674 152.359 56.8821 155.549 64.8183 155.287C89.6988 154.49 111.879 123.268 114.358 96.94C114.914 91.0231 114.41 86.3101 113.963 82.1533C113.27 75.698 112.725 70.6008 116.954 65.6221C125.911 55.077 146.896 54.4203 159.322 64.293C175.024 76.7702 169.835 105.694 160.246 120.918C156.487 126.884 152.058 130.925 148.151 134.488C142.848 139.326 139.02 142.821 139.136 148.743C139.261 155.059 143.778 160.617 148.176 162.839C157.93 167.767 172.469 159.451 179.413 148.899C184.417 141.294 184.959 133.092 184.533 127.552L187.841 127.297C188.305 133.355 187.702 142.334 182.181 150.722C176.742 158.993 165.406 167.66 154.687 167.662Z" fill="#011531"/>
<path d="M139.174 52.2716H133.322C133.74 49.4103 134.158 46.549 134.575 43.6899C135.9 43.6899 137.224 43.6899 138.549 43.6899C138.757 46.549 138.967 49.4103 139.174 52.2716Z" fill="#FFD1C3"/>
<path d="M131.223 54.4426C130.56 56.5155 129.548 59.102 127.973 61.9209C127.839 62.1711 127.689 62.4346 127.54 62.6826C127.225 63.232 126.894 63.7793 126.514 64.3422C126.313 64.6571 126.099 64.9877 125.867 65.3205C125.65 65.6198 125.436 65.9169 125.219 66.2162C122.898 69.3656 120.477 71.7378 118.438 73.4286C117.294 72.3364 116.132 71.2397 114.989 70.1452C116.762 66.9287 118.554 63.7123 120.345 60.4958L120.495 60.23C121.192 58.9368 121.904 57.677 122.617 56.3837C122.771 56.1022 123.843 54.2573 124.971 53.1985C127.218 51.0922 130.714 51.1838 132.78 51.454C132.469 51.6774 131.784 52.238 131.433 53.2164C131.261 53.6966 131.221 54.1322 131.223 54.4426Z" fill="#FFD1C3"/>
<path d="M141.211 55.4679C141.875 57.5407 142.887 60.1273 144.461 62.9461C144.593 63.1963 144.743 63.4599 144.892 63.7078C145.207 64.2573 145.54 64.8023 145.92 65.3674C146.119 65.6824 146.335 66.0129 146.568 66.3458C146.782 66.6428 146.999 66.9421 147.213 67.2414C149.536 70.3909 151.958 72.763 153.997 74.4539C155.14 73.3594 156.3 72.2649 157.446 71.1704C155.67 67.954 153.878 64.7375 152.089 61.5211L151.94 61.2553C151.243 59.962 150.53 58.7 149.818 57.4089C149.661 57.1253 148.591 55.2825 147.461 54.2237C145.216 52.1174 141.721 52.209 139.652 52.4793C139.965 52.7026 140.651 53.2633 141.001 54.2416C141.173 54.7218 141.211 55.1552 141.211 55.4679Z" fill="#FFD1C3"/>
<path d="M136.275 83.4599C136.259 83.6587 136.259 83.8754 136.225 84.0898C136.094 85.7651 135.926 87.4403 135.794 89.1468C135.397 94.1055 135.048 99.196 134.767 104.351C134.55 107.735 134.617 107.188 134.55 108.2C134.401 110.322 134.186 112.113 133.954 113.639C133.804 114.682 133.639 115.593 133.474 116.44C132.743 119.989 131.964 122.194 131.749 125.544C131.731 126.024 131.716 126.473 131.716 126.886C128.698 126.853 125.696 126.837 122.678 126.804C122.596 125.245 122.529 123.67 122.48 122.077C122.379 119.393 122.33 116.757 122.348 114.186C122.363 102.828 123.326 92.6782 124.586 84.0407L124.617 83.6922C127.919 83.6252 131.218 83.5582 134.501 83.4912C135.082 83.4912 135.678 83.4756 136.275 83.4599Z" fill="#FFD1C3"/>
<path d="M119.393 164.184C119.956 165.611 121.318 166.536 122.761 166.496C124.45 166.451 125.935 165.095 126.161 163.284C127.955 156.44 129.509 151.166 130.572 147.686C130.572 147.686 133.903 136.755 132.992 131.204C132.627 128.984 132.013 127.28 131.667 126.384C128.685 125.971 125.703 125.573 122.721 125.158C122.158 132.082 121.595 138.991 121.048 145.897C120.586 151.445 120.137 157.012 119.69 162.56C119.59 163.11 119.491 163.639 119.393 164.184Z" fill="#FFD1C3"/>
<path d="M159.755 125.412C159.572 125.841 158.611 127.932 156.19 128.926C153.952 129.837 151.977 129.192 151.497 129.026C151.265 128.513 150.934 127.733 150.552 126.737C150.436 126.391 150.338 126.14 150.32 126.091C149.525 124.068 148.678 122.576 147.7 120.934C146.257 118.497 144.532 115.727 142.411 110.387C142.046 109.442 142.279 109.958 141.05 106.79C140.072 104.219 139.094 101.684 138.1 99.1625C137.237 96.9579 136.357 94.7689 135.48 92.5956C134.834 91.0209 134.171 89.4797 133.538 87.9027L133.291 87.3219C133.871 87.1566 134.452 87.0092 134.999 86.8082C138.149 85.8969 141.316 84.9677 144.483 84.0407L144.615 84.3378C146.34 87.4895 147.849 90.5898 149.158 93.6231C153.637 103.905 156.025 113.239 158.113 119.971C158.495 121.166 159.076 123.056 159.755 125.412Z" fill="#FFD1C3"/>
<path d="M171.953 165.252C171.031 165.502 170.13 165.008 169.19 164.523C168.491 164.162 168.024 163.766 167.83 163.592L167.624 163.221C166.994 161.997 165.949 160.07 164.573 157.758C162.505 154.244 160.624 151.434 158.967 149.006C155.091 143.299 152.485 139.679 151.683 134.025C151.361 131.798 151.428 129.987 151.491 129.029C154.207 127.733 156.929 126.453 159.646 125.158C162.313 131.184 164.955 137.61 167.508 144.423C169.903 150.82 172.013 157.012 173.876 162.951C173.827 163.132 173.327 164.876 171.953 165.252Z" fill="#FFD1C3"/>
<path d="M141.14 74.1567C141.933 75.4232 142.744 76.8974 143.49 78.5794C144.87 81.7042 145.601 84.5923 145.998 86.9332C143.76 87.6368 140.609 88.3493 136.805 88.356C131.259 88.365 126.901 86.8684 124.339 85.7538C124.031 84.6236 123.392 81.6931 124.56 78.3024C126.054 73.9602 129.465 71.8985 130.363 71.3937C128.692 65.2333 127.019 59.0752 125.348 52.9148C126.26 52.2491 132.509 47.8332 139.789 49.9462C142.704 50.7928 144.757 52.3876 145.972 53.5357C144.361 60.4109 142.751 67.2838 141.14 74.1567Z" fill="#FFD1C3"/>
<path d="M138.461 60.8599L138.191 60.6455L137.568 58.0567L137.773 57.7194L138.111 57.9249L138.734 60.5159L138.526 60.8532L138.461 60.8599Z" fill="#011531"/>
<path d="M129.911 128.276L129.726 128.204L129.704 127.809L131.182 126.158L131.578 126.138L131.6 126.534L130.121 128.182L129.911 128.276Z" fill="#011531"/>
<path d="M153.128 129.685L151.247 128.964L151.088 128.602L151.452 128.446L153.228 129.147L153.387 129.509L153.128 129.685Z" fill="#011531"/>
<path d="M126.277 165.372C126.228 165.605 126.161 165.837 126.078 166.085C125.911 166.534 125.678 166.882 125.482 167.13C125.017 166.998 123.043 166.5 120.921 167.545C118.683 168.64 117.887 170.662 117.738 171.093C115.714 171.027 113.69 170.96 111.669 170.911C111.635 170.413 111.651 169.716 112.084 169.136C112.562 168.506 113.259 168.457 114.372 167.976C115.035 167.677 115.5 167.38 116.163 166.898L116.643 166.549C117.505 165.937 118.765 164.825 119.994 162.951C121.933 163.183 123.938 163.302 125.978 163.284H126.161C126.261 163.663 126.442 164.461 126.277 165.372Z" fill="#FFD1C3"/>
<path d="M126.206 163.114C126.344 163.623 126.588 164.807 126.078 166.085C125.906 166.516 125.685 166.864 125.482 167.13C124.805 167.321 124.084 167.571 123.331 167.895C120.874 168.958 119.078 170.418 117.865 171.626C117.072 171.797 116.02 171.947 114.783 171.911C113.458 171.872 112.355 171.631 111.544 171.393C111.531 171.073 111.549 170.6 111.703 170.055C111.814 169.651 111.886 169.395 112.085 169.136C112.563 168.506 113.26 168.457 114.372 167.976C115.035 167.677 115.5 167.38 116.163 166.898L116.295 167.014C117.638 167.912 120.365 166.485 123.376 164.809C124.061 164.427 125.044 163.86 126.206 163.114Z" fill="#011531"/>
<path d="M124.495 171.953L123.981 171.882C124.028 169.803 124.075 167.724 124.122 165.645L125.612 165.85C125.238 167.883 124.868 169.919 124.495 171.953Z" fill="#011531"/>
<path d="M167.591 165.372C167.642 165.605 167.707 165.837 167.79 166.085C167.957 166.534 168.187 166.882 168.388 167.13C168.853 166.998 170.825 166.5 172.947 167.545C175.185 168.64 175.98 170.662 176.13 171.093C178.154 171.027 180.177 170.96 182.199 170.911C182.232 170.413 182.217 169.716 181.786 169.136C181.303 168.506 180.608 168.457 179.496 167.976C178.833 167.677 178.368 167.38 177.705 166.898L177.224 166.549C176.362 165.937 175.103 164.825 173.876 162.951C171.935 163.183 169.929 163.302 167.89 163.284H167.707C167.606 163.663 167.425 164.461 167.591 165.372Z" fill="#FFD1C3"/>
<path d="M167.662 163.114C167.524 163.623 167.28 164.807 167.789 166.085C167.961 166.516 168.18 166.864 168.388 167.13C169.063 167.321 169.786 167.571 170.537 167.895C172.994 168.958 174.79 170.418 176.003 171.626C176.795 171.797 177.848 171.947 179.087 171.911C180.41 171.872 181.515 171.631 182.324 171.393C182.337 171.073 182.319 170.6 182.167 170.055C182.053 169.651 181.982 169.395 181.785 169.136C181.303 168.506 180.608 168.457 179.496 167.976C178.833 167.677 178.368 167.38 177.705 166.898L177.573 167.014C176.228 167.912 173.505 166.485 170.492 164.809C169.806 164.427 168.824 163.86 167.662 163.114Z" fill="#011531"/>
<path d="M169.373 171.953L169.886 171.882C169.84 169.803 169.793 167.724 169.746 165.645L168.256 165.85C168.629 167.883 169 169.919 169.373 171.953Z" fill="#011531"/>
<path d="M138.516 44.5431C138.514 46.0308 137.556 47.7864 136.463 47.7931C135.342 47.802 134.321 45.9771 134.37 44.4158C134.413 42.9863 135.364 41.2887 136.463 41.2932C137.578 41.3021 138.516 43.0712 138.516 44.5431Z" fill="#011531"/>
<path d="M140.93 39.5621C140.601 42.1732 138.915 46.1424 136.375 46.1647C133.825 46.1871 132.069 42.2089 131.727 39.5621C131.611 38.6641 131.392 36.9643 132.355 35.4656C133.543 33.6139 135.676 33.4329 136.329 33.4151C136.8 33.4061 138.783 33.357 140.059 34.9451C141.312 36.502 141.055 38.5681 140.93 39.5621Z" fill="#FFD1C3"/>
<path d="M133.014 40.373C133.195 41.2664 132.929 42.0772 132.42 42.1777C131.91 42.2805 131.352 41.6394 131.171 40.7438C130.99 39.8503 131.256 39.0417 131.765 38.939C132.274 38.8362 132.833 39.4773 133.014 40.373Z" fill="#FFD1C3"/>
<path d="M139.768 40.373C139.587 41.2664 139.853 42.0772 140.36 42.1777C140.869 42.2805 141.43 41.6394 141.609 40.7438C141.79 39.8503 141.524 39.0417 141.015 38.939C140.508 38.8362 139.947 39.4773 139.768 40.373Z" fill="#FFD1C3"/>
<path d="M136.498 43.643C136.286 43.6363 136.163 43.5089 136.167 43.3548L136.447 43.0823L136.712 43.0622L136.581 42.821L136.429 42.544L136.212 42.162C135.933 41.7287 135.904 41.034 136.123 40.0356L136.456 39.8234L136.668 40.1562C136.44 41.1926 136.549 41.655 136.681 41.8605L136.922 42.2827L137.045 42.5105C137.257 42.8813 137.362 43.0667 137.264 43.2945C137.193 43.4575 137.003 43.643 136.498 43.643Z" fill="#011531"/>
<path d="M137.738 44.0651C137.66 44.7397 137.059 45.2422 136.385 45.1998C135.704 45.1574 135.17 44.5721 135.185 43.8842C135.451 44.007 135.885 44.1634 136.436 44.2036C136.999 44.246 137.455 44.1478 137.738 44.0651Z" fill="white"/>
<path d="M134.733 40.9246C134.733 41.2328 134.579 41.4807 134.387 41.4807C134.197 41.4807 134.045 41.2328 134.045 40.9246C134.045 40.6186 134.197 40.3706 134.387 40.3706C134.579 40.3706 134.733 40.6186 134.733 40.9246Z" fill="#011531"/>
<path d="M133.072 39.8547L132.853 39.7519L132.893 39.3588C133.085 39.2047 133.49 38.9389 134.055 38.8987C134.539 38.8696 134.917 39.0081 135.149 39.131L135.265 39.5085L134.89 39.6246C134.749 39.5487 134.461 39.4236 134.093 39.4571C133.682 39.4839 133.387 39.6804 133.248 39.7921L133.072 39.8547Z" fill="#011531"/>
<path d="M138.29 40.9693C138.29 41.2753 138.444 41.5232 138.634 41.5232C138.826 41.5232 138.98 41.2753 138.98 40.9693C138.98 40.6633 138.826 40.4131 138.634 40.4131C138.444 40.4131 138.29 40.6633 138.29 40.9693Z" fill="#011531"/>
<path d="M139.954 39.8994L139.775 39.8368C139.637 39.7229 139.346 39.5286 138.931 39.4995C138.578 39.4817 138.306 39.5777 138.134 39.6693L137.758 39.5487L137.877 39.1734C138.113 39.0506 138.489 38.9166 138.969 38.9434C139.541 38.9813 139.943 39.2494 140.13 39.4035L140.168 39.7966L139.954 39.8994Z" fill="#011531"/>
<path d="M142.866 34.4649C143.378 36.3791 142.143 38.8115 140.691 39.1287C139.59 39.37 139.241 38.204 136.786 37.6099C135.991 37.4155 134.001 36.9286 132.824 37.9404C132.194 38.4832 132.161 39.1555 131.915 39.1287C131.417 39.0706 130.599 36.1736 131.881 33.9467C133.197 31.6617 135.987 31.3534 136.786 31.3199C138.855 31.2373 142.208 31.9922 142.866 34.4649Z" fill="#5B85AA"/>
<path d="M141.598 37.8288L141.404 37.7507L141.397 37.3553C142.405 36.3099 142.925 34.972 142.818 33.6854C142.749 32.8254 142.402 32.1062 141.871 31.7086C141.042 31.0899 139.601 31.1726 138.288 31.9097L137.908 31.8025L138.015 31.425C139.514 30.5784 141.201 30.5136 142.206 31.2619C142.865 31.7555 143.291 32.62 143.374 33.6407C143.495 35.0859 142.918 36.5824 141.799 37.7417L141.598 37.8288Z" fill="#5B85AA"/>
<path d="M72.9018 126.123C72.9018 132.839 67.4562 138.283 60.7418 138.283C54.0252 138.283 48.5796 132.839 48.5796 126.123C48.5796 119.408 54.0252 113.965 60.7418 113.965C67.4562 113.965 72.9018 119.408 72.9018 126.123Z" fill="#5B85AA"/>
<path d="M62.565 95.4747C46.1969 95.4747 32.8799 108.792 32.8799 125.158C32.8799 141.526 46.1969 154.843 62.565 154.843C78.9332 154.843 92.2502 141.526 92.2502 125.158C92.2502 108.792 78.9332 95.4747 62.565 95.4747ZM62.565 159.31C43.7332 159.31 28.4126 143.989 28.4126 125.158C28.4126 106.328 43.7332 91.0074 62.565 91.0074C81.3969 91.0074 96.7175 106.328 96.7175 125.158C96.7175 143.989 81.3969 159.31 62.565 159.31Z" fill="#011531"/>
<path d="M97.0704 148.837C94.5844 152.468 89.6257 153.398 85.9781 150.909C82.3462 148.405 81.4193 143.447 83.9209 139.817C86.4092 136.17 91.3836 135.256 95.0155 137.744C98.6451 140.23 99.5744 145.205 97.0704 148.837ZM62.5651 99.2585C58.1536 99.2585 54.5887 95.6757 54.5887 91.2665C54.5887 86.8707 58.1536 83.2879 62.5651 83.2879C66.9743 83.2879 70.5392 86.8707 70.5392 91.2665C70.5392 95.6757 66.9743 99.2585 62.5651 99.2585ZM62.5651 133.134C58.1536 133.134 54.5887 129.553 54.5887 125.158C54.5887 120.748 58.1536 117.166 62.5651 117.166C66.9743 117.166 70.5392 120.748 70.5392 125.158C70.5392 129.553 66.9743 133.134 62.5651 133.134ZM62.5651 167.009C58.1536 167.009 54.5887 163.445 54.5887 159.033C54.5887 154.624 58.1536 151.059 62.5651 151.059C66.9743 151.059 70.5392 154.624 70.5392 159.033C70.5392 163.445 66.9743 167.009 62.5651 167.009ZM41.2069 110.5C38.7209 114.132 33.7466 115.059 30.1147 112.555C26.4827 110.069 25.5535 105.095 28.0418 101.463C30.5457 97.8312 35.5022 96.902 39.1341 99.4059C42.7839 101.894 43.6952 106.869 41.2069 110.5ZM39.1341 150.909C35.5022 153.398 30.5457 152.468 28.0418 148.837C25.5535 145.205 26.4827 140.23 30.1147 137.744C33.7466 135.256 38.7209 136.17 41.2069 139.817C43.6952 143.447 42.7839 148.405 39.1341 150.909ZM85.9781 99.4059C89.6257 96.902 94.5844 97.8312 97.0704 101.463C99.5744 105.095 98.6451 110.069 95.0155 112.555C91.3836 115.059 86.4092 114.132 83.9209 110.5C81.4193 106.869 82.3462 101.894 85.9781 99.4059ZM62.5651 77.0047C35.9668 77.0047 14.4121 98.5616 14.4121 125.158C14.4121 151.738 35.9668 173.312 62.5651 173.312C89.1611 173.312 110.718 151.738 110.718 125.158C110.718 98.5616 89.1611 77.0047 62.5651 77.0047Z" fill="#ABEFF4"/>
<path d="M116.988 73.1584C116.262 72.9819 115.534 72.8055 114.808 72.629C114.785 71.7154 114.861 70.4646 115.288 69.0574C116.065 66.4976 117.573 64.8447 118.411 64.0518C117.95 65.8119 117.562 67.7954 117.338 69.9777C117.258 70.7527 117.207 71.501 117.173 72.2247C117.113 72.5374 117.05 72.8479 116.988 73.1584Z" fill="#011531"/>
<path d="M160.483 117.407C159.822 118.126 159.156 118.848 158.493 119.567C160.436 113.386 162.991 102.419 161.314 88.8721C159.983 78.1372 156.494 69.8124 153.771 64.541C156.646 65.7695 159.52 66.998 162.393 68.2265C164.597 73.3527 168.384 84.1502 166.704 97.7866C165.641 106.406 162.77 113.112 160.483 117.407Z" fill="#011531"/>
<path d="M112.569 117.15C113.313 110.051 114.059 102.953 114.803 95.8522V78.164C115.951 73.681 117.099 69.1959 118.245 64.7129C120.253 69.1311 124.805 80.7416 122.156 95.3675C120.251 105.881 115.466 113.313 112.569 117.15Z" fill="#011531"/>
<path d="M173.074 136.891L172.795 136.621L173.065 136.333L187.575 135.864L187.863 136.134L187.593 136.422L173.083 136.891H173.074Z" fill="white"/>
<path d="M184.855 146.105L172.581 142.634L172.389 142.29L172.733 142.098L184.931 145.56L185.123 145.904L184.855 146.105Z" fill="white"/>
<path d="M180.492 153.34L180.347 153.299L170.961 147.583L170.868 147.199L171.252 147.108L180.638 152.821L180.731 153.206L180.492 153.34Z" fill="white"/>
<path d="M176.652 158.242L176.429 158.131L169.924 149.451L169.978 149.06L170.371 149.116L176.875 157.796L176.82 158.187L176.652 158.242Z" fill="white"/>
<path d="M160.278 167.302L159.999 167.041L159.474 158.796L159.735 158.499L160.03 158.761L160.555 167.005L160.296 167.301L160.278 167.302Z" fill="white"/>
<path d="M149.567 166.775L149.391 166.712L149.353 166.319L154.12 160.481L154.513 160.443L154.551 160.833L149.784 166.674L149.567 166.775Z" fill="white"/>
<path d="M140.753 161.376L140.481 161.155L140.695 160.825L145.373 159.824L145.703 160.038L145.491 160.369L140.812 161.37L140.753 161.376Z" fill="white"/>
<path d="M158.897 77.5654L158.654 77.4247L158.761 77.0427L165.598 73.1852L165.978 73.2924L165.873 73.6721L159.036 77.5296L158.897 77.5654Z" fill="white"/>
<path d="M160.445 82.658L160.177 82.4548L160.367 82.1108L168.075 79.8995L168.422 80.0893L168.232 80.4356L160.523 82.6469L160.445 82.658Z" fill="white"/>
<path d="M161.589 91.7623L161.31 91.4898L161.583 91.2039L169.275 91.0297L169.559 91.3022L169.286 91.5881L161.596 91.7623H161.589Z" fill="white"/>
<path d="M167.946 104.628L161.897 103.797L161.658 103.482L161.973 103.243L167.984 104.072L168.223 104.389L167.946 104.628Z" fill="white"/>
<path d="M168.397 99.3837L156.23 99.234L155.956 98.9526L156.235 98.6756L168.401 98.8253L168.676 99.1089L168.397 99.3837Z" fill="white"/>
<path d="M114.271 85.439L114.025 85.2938L114.139 84.9163L122.509 80.4043L122.884 80.5182L122.772 80.8957L114.403 85.4055L114.271 85.439Z" fill="white"/>
<path d="M115.368 93.1607L115.091 92.9083L115.341 92.6023L123.535 91.7758L123.841 92.026L123.59 92.332L115.397 93.1584L115.368 93.1607Z" fill="white"/>
<path d="M62.5647 103.643C50.6996 103.643 41.048 113.295 41.048 125.158C41.048 137.023 50.6996 146.672 62.5647 146.672C74.4276 146.672 84.0792 137.023 84.0792 125.158C84.0792 113.295 74.4276 103.643 62.5647 103.643ZM62.5647 147.789C50.0853 147.789 39.9312 137.637 39.9312 125.158C39.9312 112.678 50.0853 102.526 62.5647 102.526C75.0441 102.526 85.196 112.678 85.196 125.158C85.196 137.637 75.0441 147.789 62.5647 147.789Z" fill="#011531"/>
<path d="M133.954 113.639C133.805 114.682 133.639 115.593 133.474 116.44C129.759 115.694 126.045 114.932 122.348 114.186C126.143 113.969 129.943 113.755 133.755 113.538L133.954 113.639Z" fill="#011531"/>
<path d="M149.158 93.623C148.678 102.727 148.198 111.832 147.7 120.934C146.257 118.497 144.533 115.727 142.411 110.387C142.046 109.442 142.279 109.958 141.05 106.79C140.072 104.219 139.094 101.684 138.1 99.1624V98.001C141.781 96.5424 145.477 95.0838 149.158 93.623Z" fill="#011531"/>
<path d="M147.497 115.289C138.377 114.89 129.257 114.49 120.137 114.092C120.197 107.056 120.487 97.9741 121.381 87.8379C121.72 83.9737 122.241 78.901 126 74.771C127.552 73.0623 129.208 72.0125 130.362 71.3938C129.279 68.1706 128.196 64.9452 127.115 61.7198C127.698 61.0899 129.112 59.7341 131.363 59.1824C135.037 58.28 137.977 60.2456 138.462 60.5807C139.983 58.9211 141.955 58.2733 143.333 58.9233C143.628 59.0618 144.07 59.341 144.47 59.9418C144.651 60.259 146.083 62.8501 144.888 65.4523C144.39 66.5356 143.626 67.2124 143.125 67.5765C142.645 70.0134 142.163 72.4503 141.68 74.8894C143.11 76.7947 144.725 79.3098 146.114 82.4481C148.035 86.788 148.826 90.7371 149.165 93.6275C148.609 100.847 148.053 108.068 147.497 115.289Z" fill="#82CDDE"/>
<path d="M129.632 61.6484L127.637 62.2068L124.894 52.3721C125.43 52.037 125.968 51.6998 126.504 51.3625C127.548 54.7911 128.591 58.2198 129.632 61.6484Z" fill="#82CDDE"/>
<path d="M141.571 62.1465L143.568 62.7049L146.311 52.8701C145.775 52.5351 145.237 52.1978 144.701 51.8605C143.658 55.2892 142.614 58.7178 141.571 62.1465Z" fill="#82CDDE"/>
<path d="M108.098 58.4051C106.527 58.8295 104.957 59.2539 103.387 59.6783C97.7849 54.0071 96.8334 52.1777 97.2154 51.6684C97.2958 51.5635 97.537 51.3758 97.8341 51.3423C98.4506 51.2731 98.9062 51.903 99.5987 52.5485C100.025 52.9461 100.662 53.4598 101.569 53.949C104.068 55.0122 105.096 54.8045 105.558 54.3622C106.277 53.6765 105.927 52.1397 106.543 51.9789C106.925 51.8806 107.338 52.4011 107.372 52.4458C107.707 52.8791 107.731 53.5134 107.423 54.0517C107.649 55.5036 107.872 56.9532 108.098 58.4051Z" fill="#FFD1C3"/>
<path d="M164.435 59.8592C166.005 60.2858 167.573 60.7102 169.143 61.1346C174.747 55.4634 175.697 53.6318 175.317 53.1248C175.236 53.0175 174.995 52.8322 174.698 52.7987C174.082 52.7294 173.626 53.3593 172.931 54.0048C172.507 54.4002 171.87 54.9162 170.964 55.4031C168.464 56.4685 167.434 56.2608 166.974 55.8186C166.253 55.1306 166.606 53.5961 165.989 53.4352C165.605 53.3347 165.194 53.8574 165.161 53.8998C164.825 54.3354 164.801 54.9675 165.107 55.5081C164.884 56.9599 164.66 58.4096 164.435 59.8592Z" fill="#FFD1C3"/>
<path d="M57.4227 55.5349C55.0751 55.5349 53.4602 54.9742 52.8147 53.844C51.126 50.8956 56.699 44.9921 57.8314 43.8373C60.208 41.4249 63.7751 38.5458 76.0915 34.9228C90.0518 30.8129 97.061 28.7557 104.847 30.9134C106.29 31.3155 107.313 31.722 108.611 32.2379C110.282 32.8991 112.361 33.7278 116.322 34.9228C120.503 36.187 124.769 37.2525 129.009 38.0946L129.228 38.4229L128.899 38.6441C124.644 37.7975 120.358 36.7254 116.161 35.4589C112.178 34.2549 110.085 33.424 108.406 32.7562C107.124 32.2469 106.112 31.8448 104.698 31.4517C97.0699 29.3342 90.1121 31.378 76.2478 35.4589C64.061 39.0439 60.5565 41.8672 58.229 44.2304C57.5656 44.905 51.7782 50.9135 53.2993 53.5693C54.4921 55.651 60.246 55.3808 67.6148 52.888L67.9699 53.0645L67.7935 53.4174C63.63 54.8246 60.0628 55.5327 57.4227 55.5349Z" fill="#5B85AA"/>
<path d="M17.9654 93.6386C17.0652 89.3724 16.3036 83.6029 16.7034 76.8059C17.2015 68.3314 19.3123 61.5188 21.1416 56.9443C26.9223 49.2337 32.7052 41.5232 38.4859 33.8127C39.5558 34.6525 40.6883 35.671 41.8051 36.8996C45.1243 40.5516 46.8062 44.4202 47.6908 47.152C44.4319 48.347 28.6355 54.5096 21.2779 71.3759C17.2283 80.6589 17.4852 89.1646 17.9654 93.6386Z" fill="#011531"/>
<path d="M40.5859 50.7459L40.3424 50.603L33.2461 38.0722L33.3511 37.6925L33.733 37.7975L40.8293 50.3283L40.7221 50.7102L40.5859 50.7459Z" fill="white"/>
<path d="M35.8733 53.7771L35.6321 53.6408L28.6475 41.9253L28.7435 41.5434L29.1255 41.6394L36.1123 53.3549L36.0163 53.7368L35.8733 53.7771Z" fill="white"/>
<path d="M27.5303 61.5389L27.3159 61.4384L20.6016 53.3392L20.6373 52.9461L21.0304 52.984L27.7448 61.0832L27.709 61.4741L27.5303 61.5389Z" fill="white"/>
<path d="M22.9174 68.3135L22.7923 68.2823L16.078 64.9497L15.9507 64.5744L16.3259 64.4493L23.0425 67.7842L23.1676 68.1572L22.9174 68.3135Z" fill="white"/>
<path d="M19.5602 76.3302L13.2144 75.0034L13 74.6706L13.3306 74.4561L19.6183 75.7785L19.8327 76.109L19.5602 76.3302Z" fill="white"/>
</svg>
