<svg width="200" height="200" viewBox="0 0 200 200" fill="none" xmlns="http://www.w3.org/2000/svg">
<path d="M75.0547 69.7011C74.9001 70.5941 74.2989 74.5553 76.5832 76.6072C79.0284 78.8027 83.1968 77.4116 86.2178 76.3631C89.2706 75.3045 95.0925 72.6773 100.692 65.662C99.3033 63.7666 97.9166 61.8704 96.5278 59.9776C89.3701 63.2183 82.2124 66.4602 75.0547 69.7011Z" fill="#FFD1C3"/>
<path d="M78.8273 70.6769C77.9043 73.0569 76.9643 75.4402 76.0413 77.8202C75.0484 77.0685 73.6744 75.9678 72.1946 74.4412C71.3435 73.5836 70.4692 72.6036 69.6033 71.4791C67.9414 69.3768 66.3198 66.7752 65.058 63.6608C62.96 58.5229 62.5853 53.9141 62.5959 50.9776C63.3157 50.6287 65.3925 49.7207 67.8123 50.3342C70.7846 51.09 73.0647 53.8165 73.6193 57.2485C75.3617 61.7281 77.1019 66.193 78.8273 70.6769Z" fill="#FFD1C3"/>
<path d="M76.8751 65.9135C75.3 68.759 73.7546 71.598 72.1943 74.4412C71.3432 73.5836 70.4689 72.6036 69.603 71.479C72.0376 69.6332 74.4426 67.7767 76.8751 65.9135Z" fill="#011531"/>
<path d="M77.8533 64.8061C75.1604 67.7428 72.4697 70.6768 69.7768 73.6109C66.9738 68.4961 64.173 63.3796 61.37 58.2648C59.6891 54.7419 61.334 50.6748 64.4037 49.384C67.6661 48.0054 71.9976 49.9935 73.0582 54.0242C74.6566 57.6172 76.2549 61.2113 77.8533 64.8061Z" fill="#82CDDE"/>
<path d="M92.099 103.489H44.2368V98.7749H92.099V103.489Z" fill="#011531"/>
<path d="M78.364 104.062H76.2681V79.4014H78.364V104.062Z" fill="#011531"/>
<path d="M94.8976 104.062H92.8018V76.8502H94.8976V104.062Z" fill="#011531"/>
<path d="M99.0557 79.6784H71.4219V76.406H99.0557V79.6784Z" fill="#011531"/>
<path d="M69.5399 98.8757C68.2824 99.611 65.5197 100.991 61.8127 100.951C58.508 100.917 55.8702 99.7698 54.094 98.6788C52.6269 97.7776 51.6467 96.2766 51.4202 94.5697C50.5967 88.3881 50.1711 80.1424 51.5324 70.6092C52.9444 60.7359 55.8046 52.7771 58.3154 47.1735C59.0183 46.6783 61.491 45.0689 64.7174 45.4881C68.2528 45.9479 71.2781 48.6622 72.4615 52.4117C71.7311 57.854 71.1087 63.5319 70.626 69.4365C69.7771 79.8562 69.4722 89.703 69.5399 98.8757Z" fill="#FFD1C3"/>
<path d="M85.9827 141.552C85.1486 143.711 84.3124 145.874 83.4782 148.034C81.6597 145.087 79.8433 142.14 78.0269 139.196C78.7953 137.703 79.5659 136.214 80.3344 134.724C82.2186 137 84.1007 139.276 85.9827 141.552Z" fill="#FFD1C3"/>
<path d="M67.8824 38.6293L67.7553 39.1477L66.4999 44.4916L65.7759 47.5424L59.1602 45.9669L61.2666 37.0563L61.9885 37.2301L67.4568 38.5359L67.8824 38.6293Z" fill="#FFD1C3"/>
<path d="M56.5158 100.739C69.6796 102.549 82.8434 104.359 96.0072 106.171L99.1574 94.6317C85.7035 91.8283 72.2518 89.0257 58.8001 86.2247C55.7198 85.583 49.7116 88.0731 48.6573 91.8986C48.0582 94.0702 49.157 96.7123 50.785 98.3803C53.0629 100.716 55.9866 100.741 56.5158 100.739Z" fill="#5B85AA"/>
<path d="M62.5216 98.4383C75.7616 97.064 89.0015 95.6919 102.244 94.32C102.678 90.3315 103.114 86.3471 103.55 82.3587C103.351 82.2703 103.116 82.1849 102.845 82.1263C102.146 81.965 101.543 82.0395 101.158 82.1263C87.8499 82.8524 74.54 83.5826 61.228 84.3111C61.6599 89.0192 62.0918 93.7279 62.5216 98.4383Z" fill="#5B85AA"/>
<path d="M101.672 106.06C103.145 103.154 102.303 99.7416 100.044 98.1348C97.3405 96.2087 92.9349 97.1152 91.0169 100.622C85.4724 108.287 83.4103 114.538 82.5847 118.963C82.3116 120.422 82.0618 122.282 81.361 125.261C80.0612 130.793 78.3845 135.162 77.1396 138.052C80.2962 139.661 83.4548 141.275 86.6155 142.886C87.619 140.429 93.0683 127.107 94.0739 124.647C95.1155 122.1 100.63 108.608 101.672 106.06Z" fill="#5B85AA"/>
<path d="M86.4822 158.615C84.7102 156.091 82.9234 153.566 81.1324 151.038C78.7931 147.513 76.4643 143.98 74.125 140.455L74.2795 140.104C74.4531 139.756 74.6543 139.407 74.9316 139.071C76.1934 137.537 77.9843 137.284 78.6385 137.212C80.6201 140.165 82.6037 143.097 84.5853 146.05C85.6946 150.219 86.5118 153.312 87.022 154.877C87.1469 155.251 87.437 156.132 87.2295 157.123C87.1152 157.626 86.9141 158.026 86.7151 158.31L86.4822 158.615Z" fill="#82CDDE"/>
<path d="M86.7828 158.409L86.4822 158.615C84.7102 156.091 82.9234 153.566 81.1324 151.038C78.7931 147.513 76.4643 143.98 74.125 140.455L74.2795 140.104L86.7828 158.409Z" fill="#011531"/>
<path d="M95.5029 62.3675C97.169 63.5427 98.8372 64.7193 100.503 65.8945C108.391 57.2171 109.755 54.5236 109.217 53.8762C109.145 53.7877 108.849 53.5123 108.438 53.4634C107.663 53.3766 107.089 54.1731 106.213 54.986C105.677 55.4854 104.875 56.1353 103.732 56.7491C100.582 58.0913 99.2861 57.829 98.7039 57.2718C97.7957 56.4059 98.2403 54.469 97.4612 54.2681C96.9785 54.1432 96.4598 54.7991 96.4175 54.856C95.9941 55.4026 95.9623 56.1982 96.3519 56.8805C96.0682 58.7099 95.7866 60.5382 95.5029 62.3675Z" fill="#FFD1C3"/>
<path d="M63.2925 105.928H43.0578C42.084 105.928 41.29 105.132 41.29 104.16C41.29 103.187 42.084 102.393 43.0578 102.393H63.2925C64.2642 102.393 65.0602 103.187 65.0602 104.16C65.0602 105.132 64.2642 105.928 63.2925 105.928Z" fill="#011531"/>
<path d="M97.5398 105.928H64.9289C63.9572 105.928 63.1611 105.132 63.1611 104.16C63.1611 103.187 63.9572 102.393 64.9289 102.393H97.5398C98.5115 102.393 99.3076 103.187 99.3076 104.16C99.3076 105.132 98.5115 105.928 97.5398 105.928Z" fill="#011531"/>
<path d="M63.292 106.193L63.0273 105.928V102.393L63.292 102.128L63.5566 102.393V105.928L63.292 106.193Z" fill="white"/>
<path d="M118.204 119.348C114.843 120.352 111.493 121.374 108.132 122.395L108.021 122.428C107.454 120.919 106.7 119.047 105.727 116.943C104.782 114.915 103.62 112.684 102.206 110.279C100.65 107.638 99.5511 106.129 98.7318 104.886C96.2655 101.131 93.4053 95.1908 92.0991 85.8246C95.9204 84.6626 99.7374 83.5149 103.557 82.3505C104.564 84.9124 109.937 98.4589 110.96 101.021C111.493 102.39 113.38 107.135 115.109 111.504C115.831 113.327 116.523 115.071 117.089 116.486C117.593 117.79 117.999 118.812 118.204 119.348Z" fill="#5B85AA"/>
<path d="M97.1057 102.414L96.8749 102.278C96.0069 100.76 95.2808 99.1552 94.7155 97.5105C93.7692 94.75 93.2569 91.8565 93.1997 88.9091L93.4643 88.6379L93.729 88.8966C93.7861 91.7902 94.2858 94.6317 95.2173 97.3369C95.7698 98.9526 96.4833 100.527 97.3343 102.018L97.2369 102.378L97.1057 102.414Z" fill="white"/>
<path d="M93.2613 92.1649L61.8909 87.0988L61.6729 86.7986L61.9756 86.5778L93.3036 91.6396L93.5238 91.9407L93.2613 92.1649Z" fill="white"/>
<path d="M52.1886 173.693C51.7355 173.43 51.5789 172.847 51.8393 172.395L90.7506 104.999C91.0131 104.545 91.5974 104.389 92.0504 104.651C92.5014 104.912 92.658 105.498 92.3976 105.949L53.4863 173.345C53.2238 173.798 52.6395 173.953 52.1886 173.693Z" fill="#011531"/>
<path d="M89.2978 173.693C89.7509 173.43 89.9075 172.847 89.6471 172.395L50.7337 104.999C50.4733 104.545 49.889 104.389 49.4381 104.651C48.985 104.912 48.8284 105.498 49.0888 105.949L88.0001 173.345C88.2605 173.798 88.8448 173.953 89.2978 173.693Z" fill="#011531"/>
<path d="M123.203 117.227L109.247 125.286C108.398 124.217 108.21 123.025 108.131 122.395L108.021 122.428C107.454 120.919 106.7 119.047 105.727 116.943L115.109 111.504C115.831 113.327 116.523 115.071 117.089 116.486C118.975 116.03 120.673 115.622 122.07 115.277L123.203 117.227Z" fill="#FFD1C3"/>
<path d="M129.693 114.883C127.132 116.596 124.568 118.325 121.992 120.055C118.424 122.316 114.842 124.565 111.258 126.812L110.913 126.656C110.566 126.465 110.221 126.262 109.891 125.979C109.891 125.979 109.565 125.701 109.247 125.286C108.902 124.838 108.39 123.938 107.898 122.707L107.945 122.439L108.114 122.223C111.116 120.322 114.087 118.404 117.089 116.486C118.975 116.03 120.673 115.622 122.07 115.277C123.783 114.851 125.104 114.504 125.97 114.254C126.344 114.147 127.242 113.863 128.216 114.098C128.717 114.224 129.111 114.426 129.395 114.648L129.693 114.883Z" fill="#82CDDE"/>
<path d="M129.498 114.576L129.695 114.881C127.132 116.594 124.566 118.321 121.998 120.053C118.42 122.31 114.834 124.556 111.256 126.815L110.909 126.654L129.498 114.576Z" fill="#011531"/>
<path d="M116.356 114.653C111.849 116.562 107.337 118.472 102.828 120.383C102.472 116.767 102.117 113.149 101.759 109.533C106.209 110.19 110.659 110.848 115.109 111.504C115.524 112.555 115.941 113.602 116.356 114.653Z" fill="#5B85AA"/>
<path d="M72.1248 83.7141C71.8877 86.0866 71.0451 87.4676 70.4587 88.2145C66.8576 92.8066 58.3259 92.1012 51.1131 91.505C49.574 91.3793 48.3292 91.2162 47.5776 91.1129C49.411 77.9508 51.2444 64.7872 53.0777 51.626C53.0142 50.0192 52.9507 48.4123 52.8872 46.8055C55.0635 46.1572 57.2398 45.5096 59.4162 44.862C60.0555 45.5261 64.0885 49.6842 65.6509 48.7273C65.9621 48.5372 66.4765 47.9591 66.1949 45.7717C67.3318 46.2059 70.0099 47.4175 71.5934 50.2514C72.0189 51.014 72.2878 51.7549 72.4614 52.4116C72.889 59.0439 73.1939 73.0651 72.1248 83.7141Z" fill="#82CDDE"/>
<path d="M45.7438 103.839H43.6479V79.179H45.7438V103.839Z" fill="#011531"/>
<path d="M62.278 103.839H60.1821V76.6277H62.278V103.839Z" fill="#011531"/>
<path d="M66.436 79.4569H38.8022V76.1837H66.436V79.4569Z" fill="#011531"/>
<path d="M52.2369 71.221C49.834 72.0811 47.4164 72.9296 45.0135 73.787C44.931 72.5441 44.8632 70.7868 45.0516 68.6682C45.1405 67.4632 45.3099 66.1616 45.5936 64.7705C46.0975 62.1393 47.0057 59.2093 48.5321 56.2156C51.045 51.2704 54.2862 47.9699 56.5133 46.0554C57.25 46.373 59.293 47.3496 60.4129 49.5807C61.7869 52.3223 61.2174 55.8328 58.986 58.4931C56.7356 62.7445 54.4979 66.9803 52.2369 71.221Z" fill="#FFD1C3"/>
<path d="M54.5637 66.6297C51.3796 67.3004 48.221 67.9884 45.0518 68.6682C45.1407 67.4632 45.31 66.1616 45.5937 64.7705C48.5851 65.4033 51.5617 66.0069 54.5637 66.6297Z" fill="#011531"/>
<path d="M56.0391 66.642C52.0591 66.5279 48.0769 66.4129 44.0947 66.2971C46.1313 60.8309 48.1658 55.3647 50.2003 49.8983C51.7648 46.32 55.9163 44.9044 58.9034 46.3795C62.079 47.9485 63.4107 52.5215 61.0565 55.9617C59.3841 59.5226 57.7116 63.0811 56.0391 66.642Z" fill="#82CDDE"/>
<path d="M47.2133 69.3537C46.5401 69.9641 43.6271 72.7112 44.1606 75.737C44.7322 78.9715 48.8731 80.4451 51.8963 81.4829C54.9512 82.5306 61.1562 84.0524 69.8911 81.98C69.9652 79.6322 70.0415 77.2818 70.1156 74.934C62.4815 73.0759 54.8474 71.2144 47.2133 69.3537Z" fill="#FFD1C3"/>
<path d="M80.5868 81.6838C77.8367 81.7492 75.0888 81.8144 72.3388 81.8782C72.0128 77.2289 71.6846 72.5822 71.3564 67.9313H81.3108C81.0695 72.5145 80.8281 77.0983 80.5868 81.6838Z" fill="#ABEFF4"/>
<path d="M81.9162 69.7985H70.6196V67.5394H81.9162V69.7985Z" fill="#011531"/>
<path d="M80.6881 67.9313H71.6187V66.642H80.6881V67.9313Z" fill="#011531"/>
<path d="M73.9663 75.6056C72.6135 75.2798 71.2607 74.9514 69.9058 74.6256C70.3969 74.2634 70.9728 73.8929 71.6354 73.5523C73.3142 72.6881 78.158 71.9281 78.4693 72.4995C78.6513 72.8344 78.6577 73.4142 78.2956 73.8021C77.9252 74.1931 77.3874 74.151 77.3154 74.1453C76.1976 74.6316 75.082 75.1185 73.9663 75.6056Z" fill="#FFD1C3"/>
<path d="M67.7551 39.1477L66.4997 44.4915C65.3205 44.2394 63.9063 42.9649 62.9473 41.1276C62.2084 39.7299 61.893 38.3142 61.9882 37.2301C62.0517 36.3981 62.3503 35.7522 62.9007 35.4685C64.1413 34.8103 66.1694 36.1781 67.4566 38.5359L67.5518 38.7078L67.7551 39.1477Z" fill="#011531"/>
<path d="M71.2205 33.832L71.2035 34.2108C71.068 37.1009 70.1831 41.0994 68.0152 42.1141L67.4606 42.3002C65.2949 42.7765 62.82 40.3163 61.2936 37.4583L60.9994 36.8744C60.8109 36.5204 60.6649 36.169 60.5188 35.8051C60.3304 35.3165 60.1716 34.8442 60.0509 34.3695C59.7461 33.1903 59.3226 31.4313 60.2372 29.7069C61.4249 27.4684 63.9823 26.9408 64.7804 26.8233C65.2123 26.7598 66.7005 26.5365 68.1719 27.1252C68.644 27.3155 69.1013 27.5884 69.5184 27.9564C70.2995 28.6484 70.7145 29.5029 70.9262 30.3958L70.9791 30.6249C71.0849 31.0716 71.1379 31.5181 71.1612 31.9523C71.1866 32.3037 71.1993 32.6403 71.2099 32.9661C71.2226 33.2373 71.2205 33.521 71.2205 33.832Z" fill="#FFD1C3"/>
<path d="M65.8033 36.1252C65.8012 36.4676 65.6424 36.7455 65.4498 36.743C65.255 36.743 65.1004 36.4635 65.1026 36.1201C65.1047 35.7778 65.2614 35.5001 65.4561 35.5001C65.6488 35.5024 65.8033 35.7821 65.8033 36.1252Z" fill="#011531"/>
<path d="M70.3692 36.1483C70.3671 36.4906 70.2083 36.7686 70.0157 36.7686C69.823 36.7661 69.6664 36.4866 69.6685 36.1443C69.6706 35.8011 69.8272 35.5231 70.022 35.5231C70.2147 35.5257 70.3692 35.8051 70.3692 36.1483Z" fill="#011531"/>
<path d="M67.4311 38.7732C67.1918 38.765 67.0797 38.6401 67.086 38.4936L67.3612 38.2423C67.5624 38.2588 67.7105 38.2124 67.7444 38.1868L67.5369 37.8775C67.3189 37.4922 67.1389 37.169 67.1156 37.1217C66.8468 36.6139 67.0796 35.8854 67.8524 34.8252L68.2228 34.7657L68.28 35.1336C67.4649 36.2559 67.4925 36.7049 67.5835 36.8745C67.6089 36.9208 67.7846 37.2384 67.9773 37.579C68.2123 37.9942 68.3202 38.1843 68.2165 38.415C68.0852 38.7178 67.7021 38.7732 67.4311 38.7732Z" fill="#011531"/>
<path d="M65.2883 39.0419C65.0385 39.4314 66.0844 41.0067 67.1492 40.9093C67.651 40.863 68.1992 40.4453 68.1675 40.0896C68.1611 40.0326 68.1273 39.8101 67.3842 39.4678C66.9523 39.2669 65.5233 38.6756 65.2883 39.0419Z" fill="white"/>
<path d="M66.2903 34.3465L66.1421 34.3018C65.8986 34.1371 65.6171 34.0313 65.327 33.9991C64.9375 33.961 64.6114 34.0586 64.4103 34.1521L64.061 34.0204L64.1923 33.669C64.4527 33.5509 64.8634 33.4169 65.3842 33.4738C65.761 33.5145 66.123 33.65 66.4385 33.8634L66.5105 34.2298L66.2903 34.3465Z" fill="#011531"/>
<path d="M71.0134 34.7002L70.8652 34.6555C70.6958 34.5414 70.4185 34.3977 70.0523 34.3547C69.6564 34.3149 69.3346 34.4142 69.1335 34.5052L68.7842 34.3736L68.9154 34.0221C69.1737 33.9063 69.595 33.7749 70.1073 33.8295C70.5837 33.8807 70.9436 34.0668 71.1616 34.2173L71.2336 34.5838L71.0134 34.7002Z" fill="#011531"/>
<path d="M71.4151 27.1682C72.5838 28.0762 72.7383 30.5985 71.6417 31.7364C71.1759 32.2169 70.1089 32.3419 67.9898 32.5701C65.3392 32.8561 64.0012 32.7909 63.3428 33.7236C63.0909 34.0802 63.0189 34.4646 62.9978 34.7318C62.7712 34.2406 62.3415 33.9254 61.9181 33.9462C61.3274 33.9743 60.9083 34.645 60.885 35.1742C60.8426 36.226 62.3605 36.9993 62.2124 37.2367C62.1361 37.3565 61.6683 37.2722 61.266 37.0563C59.492 36.1161 58.9309 32.6742 59.8222 30.0817C59.945 29.7243 60.1186 29.2315 60.5102 28.6743C61.8736 26.7283 64.2024 26.3934 64.5369 26.3495C65.7817 26.1882 65.7182 26.6059 68.4005 26.8085C70.4794 26.9656 70.8689 26.7431 71.4151 27.1682Z" fill="#011531"/>
<path d="M69.4759 33.6841C68.3158 33.6841 67.0582 33.2903 65.9426 32.3815L65.9023 32.011L66.2749 31.9731C68.4428 33.7288 71.1674 33.3771 72.3551 31.9415C73.2908 30.8127 73.53 28.7628 72.3953 27.5099C71.468 26.4885 70.0179 26.4017 69.0525 26.639C68.1803 26.8549 67.5748 27.3569 67.2191 27.7413L66.8444 27.7564L66.8296 27.3816C67.234 26.9457 67.9262 26.3727 68.9276 26.1262C70.0306 25.8502 71.7031 25.9577 72.787 27.1543C74.1059 28.6097 73.8392 30.9806 72.7616 32.2824C72.0397 33.1548 70.8224 33.6841 69.4759 33.6841Z" fill="#011531"/>
<path d="M57.1063 66.9829L56.8438 66.6827L58.8972 52.0808L59.1958 51.8566L59.4202 52.1553L57.3688 66.7561L57.1063 66.9829Z" fill="#011531"/>
<path d="M77.2372 83.4891C75.2578 83.7588 72.73 83.8894 69.8402 83.5172C68.3752 83.3288 67.0521 83.0386 65.894 82.7142C66.8742 80.015 67.8566 77.3208 68.8389 74.6256H79.1383H79.892C80.074 75.5015 80.3471 77.4324 79.5977 79.6784C78.9562 81.6079 77.8596 82.8673 77.2372 83.4891Z" fill="#FFD1C3"/>
<path d="M98.0649 60.8773L97.8003 60.6101C97.8024 60.2653 97.8744 59.588 98.3401 58.9364C98.789 58.3112 99.3796 58.0258 99.6909 57.9092L100.032 58.0656L99.875 58.4046C99.621 58.4996 99.1383 58.7346 98.7699 59.2474C98.3888 59.7766 98.3296 60.3315 98.3296 60.6152L98.0649 60.8773Z" fill="#011531"/>
<path d="M77.8684 139.835C77.6122 139.835 77.4047 140.044 77.4047 140.3C77.4047 140.557 77.6122 140.764 77.8684 140.764C78.1245 140.764 78.3341 140.557 78.3341 140.3C78.3341 140.044 78.1245 139.835 77.8684 139.835ZM77.8684 141.293C77.3222 141.293 76.8755 140.849 76.8755 140.3C76.8755 139.752 77.3222 139.306 77.8684 139.306C78.4167 139.306 78.8634 139.752 78.8634 140.3C78.8634 140.849 78.4167 141.293 77.8684 141.293Z" fill="#011531"/>
<path d="M111.243 121.962C110.987 121.962 110.78 122.172 110.78 122.428C110.78 122.684 110.987 122.89 111.243 122.89C111.502 122.89 111.709 122.684 111.709 122.428C111.709 122.172 111.502 121.962 111.243 121.962ZM111.243 123.419C110.697 123.419 110.25 122.974 110.25 122.428C110.25 121.88 110.697 121.433 111.243 121.433C111.792 121.433 112.238 121.88 112.238 122.428C112.238 122.974 111.792 123.419 111.243 123.419Z" fill="#011531"/>
<path d="M49.8066 71.5345L49.5483 71.3268L49.7495 71.0118L52.4826 70.3932L52.798 70.5941L52.5969 70.9117L49.8638 71.5277L49.8066 71.5345Z" fill="#011531"/>
<path d="M47.9671 173.212C45.2171 173.278 42.4692 173.343 39.7191 173.409C39.391 168.758 39.065 164.111 38.7368 159.462H48.6912C48.4498 164.045 48.2085 168.628 47.9671 173.212Z" fill="#ABEFF4"/>
<path d="M49.2966 161.329H38V159.068H49.2966V161.329Z" fill="#011531"/>
<path d="M48.0686 159.462H38.9971V158.17H48.0686V159.462Z" fill="#011531"/>
<path d="M145.271 71.1896H117.629C115.461 71.1896 113.704 69.4322 113.704 67.2665V46.1721C113.704 44.0061 115.461 42.2498 117.629 42.2498H145.271C147.439 42.2498 149.196 44.0061 149.196 46.1721V67.2665C149.196 69.4322 147.439 71.1896 145.271 71.1896Z" fill="#011531"/>
<path d="M153.368 53.5271C153.385 55.6061 153.402 57.6869 153.419 59.7633C155.989 61.0915 158.559 62.4162 161.129 63.7419V49.1061C158.542 50.5798 155.957 52.0534 153.368 53.5271Z" fill="#011531"/>
<path d="M154.533 61.4513H148.394V51.9709H154.533V61.4513Z" fill="#011531"/>
<path d="M112.761 72.5996C111.25 72.5996 110.011 71.3632 110.011 69.8491V41.6568C110.011 40.1451 111.25 38.9064 112.761 38.9064C114.275 38.9064 115.513 40.1451 115.513 41.6568V69.8491C115.513 71.3632 114.275 72.5996 112.761 72.5996Z" fill="#011531"/>
<path d="M128.561 43.7036H119.18V38.4978H128.561V43.7036Z" fill="#011531"/>
<path d="M143.555 45.7999H134.175V40.5941H143.555V45.7999Z" fill="#011531"/>
<path d="M114.593 67.4657L114.328 67.2011V43.7036L114.593 43.439L114.857 43.7036V67.2011L114.593 67.4657Z" fill="white"/>
<path d="M137.507 48.2131H118.45L118.185 47.9485L118.45 47.6838H137.507L137.772 47.9485L137.507 48.2131Z" fill="white"/>
<path d="M147.182 61.7159L146.917 61.4513V50.7957L147.182 50.5311L147.447 50.7957V61.4513L147.182 61.7159Z" fill="white"/>
<path d="M145.463 61.7159L145.199 61.4513V50.7957L145.463 50.5311L145.728 50.7957V61.4513L145.463 61.7159Z" fill="white"/>
<path d="M118.714 63.4772H135.278V53.6156H118.714V63.4772ZM135.543 64.0065H118.45L118.185 63.7419V53.351L118.45 53.0864H135.543L135.807 53.351V63.7419L135.543 64.0065Z" fill="white"/>
<path d="M131.059 50.8254H136.259V49.881H131.059V50.8254ZM136.523 51.3546H130.794L130.53 51.09V49.6163L130.794 49.3517H136.523L136.788 49.6163V51.09L136.523 51.3546Z" fill="white"/>
<path d="M110.771 174.476C110.398 174.435 110.125 174.097 110.166 173.722L121.534 69.5233C121.574 69.1503 121.913 68.88 122.288 68.9179C122.662 68.9602 122.933 69.2991 122.893 69.6739L111.525 173.87C111.484 174.243 111.146 174.516 110.771 174.476Z" fill="#011531"/>
<path d="M120.082 101.214L117.478 100.93L118.553 91.0816L121.157 91.3653L120.082 101.214Z" fill="#011531"/>
<path d="M114.984 147.952L112.38 147.668L113.454 137.819L116.058 138.103L114.984 147.952Z" fill="#011531"/>
<path d="M149.314 174.476C149.687 174.435 149.96 174.097 149.92 173.722L138.551 69.5233C138.509 69.1503 138.17 68.88 137.797 68.9179C137.423 68.9602 137.149 69.2991 137.192 69.6739L148.56 173.87C148.601 174.243 148.939 174.516 149.314 174.476Z" fill="#011531"/>
<path d="M140.003 101.214L142.607 100.93L141.532 91.0816L138.928 91.3653L140.003 101.214Z" fill="#011531"/>
<path d="M145.103 147.952L147.707 147.668L146.632 137.819L144.028 138.103L145.103 147.952Z" fill="#011531"/>
<path d="M75.0547 69.7011C74.9001 70.5941 74.2989 74.5553 76.5832 76.6072C79.0284 78.8027 83.1968 77.4116 86.2178 76.3631C89.2706 75.3045 95.0925 72.6773 100.692 65.662C99.3033 63.7666 97.9166 61.8704 96.5278 59.9776C89.3701 63.2183 82.2124 66.4602 75.0547 69.7011Z" fill="#FFD1C3"/>
<path d="M78.8273 70.6769C77.9043 73.0569 76.9643 75.4402 76.0413 77.8202C75.0484 77.0685 73.6744 75.9678 72.1946 74.4412C71.3435 73.5836 70.4692 72.6036 69.6033 71.4791C67.9414 69.3768 66.3198 66.7752 65.058 63.6608C62.96 58.5229 62.5853 53.9141 62.5959 50.9776C63.3157 50.6287 65.3925 49.7207 67.8123 50.3342C70.7846 51.09 73.0647 53.8165 73.6193 57.2485C75.3617 61.7281 77.1019 66.193 78.8273 70.6769Z" fill="#FFD1C3"/>
<path d="M76.8751 65.9135C75.3 68.759 73.7546 71.598 72.1943 74.4412C71.3432 73.5836 70.4689 72.6036 69.603 71.479C72.0376 69.6332 74.4426 67.7767 76.8751 65.9135Z" fill="#011531"/>
<path d="M77.8533 64.8061C75.1604 67.7428 72.4697 70.6768 69.7768 73.6109C66.9738 68.4961 64.173 63.3796 61.37 58.2648C59.6891 54.7419 61.334 50.6748 64.4037 49.384C67.6661 48.0054 71.9976 49.9935 73.0582 54.0242C74.6566 57.6172 76.2549 61.2113 77.8533 64.8061Z" fill="#82CDDE"/>
<path d="M92.099 103.489H44.2368V98.7749H92.099V103.489Z" fill="#011531"/>
<path d="M78.364 104.062H76.2681V79.4014H78.364V104.062Z" fill="#011531"/>
<path d="M94.8976 104.062H92.8018V76.8502H94.8976V104.062Z" fill="#011531"/>
<path d="M99.0557 79.6784H71.4219V76.406H99.0557V79.6784Z" fill="#011531"/>
<path d="M69.5399 98.8757C68.2824 99.611 65.5197 100.991 61.8127 100.951C58.508 100.917 55.8702 99.7698 54.094 98.6788C52.6269 97.7776 51.6467 96.2766 51.4202 94.5697C50.5967 88.3881 50.1711 80.1424 51.5324 70.6092C52.9444 60.7359 55.8046 52.7771 58.3154 47.1735C59.0183 46.6783 61.491 45.0689 64.7174 45.4881C68.2528 45.9479 71.2781 48.6622 72.4615 52.4117C71.7311 57.854 71.1087 63.5319 70.626 69.4365C69.7771 79.8562 69.4722 89.703 69.5399 98.8757Z" fill="#FFD1C3"/>
<path d="M85.9827 141.552C85.1486 143.711 84.3124 145.874 83.4782 148.034C81.6597 145.087 79.8433 142.14 78.0269 139.196C78.7953 137.703 79.5659 136.214 80.3344 134.724C82.2186 137 84.1007 139.276 85.9827 141.552Z" fill="#FFD1C3"/>
<path d="M67.8824 38.6293L67.7553 39.1477L66.4999 44.4916L65.7759 47.5424L59.1602 45.9669L61.2666 37.0563L61.9885 37.2301L67.4568 38.5359L67.8824 38.6293Z" fill="#FFD1C3"/>
<path d="M56.5158 100.739C69.6796 102.549 82.8434 104.359 96.0072 106.171L99.1574 94.6317C85.7035 91.8283 72.2518 89.0257 58.8001 86.2247C55.7198 85.583 49.7116 88.0731 48.6573 91.8986C48.0582 94.0702 49.157 96.7123 50.785 98.3803C53.0629 100.716 55.9866 100.741 56.5158 100.739Z" fill="#5B85AA"/>
<path d="M62.5216 98.4383C75.7616 97.064 89.0015 95.6919 102.244 94.32C102.678 90.3315 103.114 86.3471 103.55 82.3587C103.351 82.2703 103.116 82.1849 102.845 82.1263C102.146 81.965 101.543 82.0395 101.158 82.1263C87.8499 82.8524 74.54 83.5826 61.228 84.3111C61.6599 89.0192 62.0918 93.7279 62.5216 98.4383Z" fill="#5B85AA"/>
<path d="M101.672 106.06C103.145 103.154 102.303 99.7416 100.044 98.1348C97.3405 96.2087 92.9349 97.1152 91.0169 100.622C85.4724 108.287 83.4103 114.538 82.5847 118.963C82.3116 120.422 82.0618 122.282 81.361 125.261C80.0612 130.793 78.3845 135.162 77.1396 138.052C80.2962 139.661 83.4548 141.275 86.6155 142.886C87.619 140.429 93.0683 127.107 94.0739 124.647C95.1155 122.1 100.63 108.608 101.672 106.06Z" fill="#5B85AA"/>
<path d="M86.4822 158.615C84.7102 156.091 82.9234 153.566 81.1324 151.038C78.7931 147.513 76.4643 143.98 74.125 140.455L74.2795 140.104C74.4531 139.756 74.6543 139.407 74.9316 139.071C76.1934 137.537 77.9843 137.284 78.6385 137.212C80.6201 140.165 82.6037 143.097 84.5853 146.05C85.6946 150.219 86.5118 153.312 87.022 154.877C87.1469 155.251 87.437 156.132 87.2295 157.123C87.1152 157.626 86.9141 158.026 86.7151 158.31L86.4822 158.615Z" fill="#82CDDE"/>
<path d="M86.7828 158.409L86.4822 158.615C84.7102 156.091 82.9234 153.566 81.1324 151.038C78.7931 147.513 76.4643 143.98 74.125 140.455L74.2795 140.104L86.7828 158.409Z" fill="#011531"/>
<path d="M95.5029 62.3675C97.169 63.5427 98.8372 64.7193 100.503 65.8945C108.391 57.2171 109.755 54.5236 109.217 53.8762C109.145 53.7877 108.849 53.5123 108.438 53.4634C107.663 53.3766 107.089 54.1731 106.213 54.986C105.677 55.4854 104.875 56.1353 103.732 56.7491C100.582 58.0913 99.2861 57.829 98.7039 57.2718C97.7957 56.4059 98.2403 54.469 97.4612 54.2681C96.9785 54.1432 96.4598 54.7991 96.4175 54.856C95.9941 55.4026 95.9623 56.1982 96.3519 56.8805C96.0682 58.7099 95.7866 60.5382 95.5029 62.3675Z" fill="#FFD1C3"/>
<path d="M63.2925 105.928H43.0578C42.084 105.928 41.29 105.132 41.29 104.16C41.29 103.187 42.084 102.393 43.0578 102.393H63.2925C64.2642 102.393 65.0602 103.187 65.0602 104.16C65.0602 105.132 64.2642 105.928 63.2925 105.928Z" fill="#011531"/>
<path d="M97.5398 105.928H64.9289C63.9572 105.928 63.1611 105.132 63.1611 104.16C63.1611 103.187 63.9572 102.393 64.9289 102.393H97.5398C98.5115 102.393 99.3076 103.187 99.3076 104.16C99.3076 105.132 98.5115 105.928 97.5398 105.928Z" fill="#011531"/>
<path d="M63.292 106.193L63.0273 105.928V102.393L63.292 102.128L63.5566 102.393V105.928L63.292 106.193Z" fill="white"/>
<path d="M118.204 119.348C114.843 120.352 111.493 121.374 108.132 122.395L108.021 122.428C107.454 120.919 106.7 119.047 105.727 116.943C104.782 114.915 103.62 112.684 102.206 110.279C100.65 107.638 99.5511 106.129 98.7318 104.886C96.2655 101.131 93.4053 95.1908 92.0991 85.8246C95.9204 84.6626 99.7374 83.5149 103.557 82.3505C104.564 84.9124 109.937 98.4589 110.96 101.021C111.493 102.39 113.38 107.135 115.109 111.504C115.831 113.327 116.523 115.071 117.089 116.486C117.593 117.79 117.999 118.812 118.204 119.348Z" fill="#5B85AA"/>
<path d="M97.1057 102.414L96.8749 102.278C96.0069 100.76 95.2808 99.1552 94.7155 97.5105C93.7692 94.75 93.2569 91.8565 93.1997 88.9091L93.4643 88.6379L93.729 88.8966C93.7861 91.7902 94.2858 94.6317 95.2173 97.3369C95.7698 98.9526 96.4833 100.527 97.3343 102.018L97.2369 102.378L97.1057 102.414Z" fill="white"/>
<path d="M93.2613 92.1649L61.8909 87.0988L61.6729 86.7986L61.9756 86.5778L93.3036 91.6396L93.5238 91.9407L93.2613 92.1649Z" fill="white"/>
<path d="M52.1886 173.693C51.7355 173.43 51.5789 172.847 51.8393 172.395L90.7506 104.999C91.0131 104.545 91.5974 104.389 92.0504 104.651C92.5014 104.912 92.658 105.498 92.3976 105.949L53.4863 173.345C53.2238 173.798 52.6395 173.953 52.1886 173.693Z" fill="#011531"/>
<path d="M89.2978 173.693C89.7509 173.43 89.9075 172.847 89.6471 172.395L50.7337 104.999C50.4733 104.545 49.889 104.389 49.4381 104.651C48.985 104.912 48.8284 105.498 49.0888 105.949L88.0001 173.345C88.2605 173.798 88.8448 173.953 89.2978 173.693Z" fill="#011531"/>
<path d="M123.203 117.227L109.247 125.286C108.398 124.217 108.21 123.025 108.131 122.395L108.021 122.428C107.454 120.919 106.7 119.047 105.727 116.943L115.109 111.504C115.831 113.327 116.523 115.071 117.089 116.486C118.975 116.03 120.673 115.622 122.07 115.277L123.203 117.227Z" fill="#FFD1C3"/>
<path d="M129.693 114.883C127.132 116.596 124.568 118.325 121.992 120.055C118.424 122.316 114.842 124.565 111.258 126.812L110.913 126.656C110.566 126.465 110.221 126.262 109.891 125.979C109.891 125.979 109.565 125.701 109.247 125.286C108.902 124.838 108.39 123.938 107.898 122.707L107.945 122.439L108.114 122.223C111.116 120.322 114.087 118.404 117.089 116.486C118.975 116.03 120.673 115.622 122.07 115.277C123.783 114.851 125.104 114.504 125.97 114.254C126.344 114.147 127.242 113.863 128.216 114.098C128.717 114.224 129.111 114.426 129.395 114.648L129.693 114.883Z" fill="#82CDDE"/>
<path d="M129.498 114.576L129.695 114.881C127.132 116.594 124.566 118.321 121.998 120.053C118.42 122.31 114.834 124.556 111.256 126.815L110.909 126.654L129.498 114.576Z" fill="#011531"/>
<path d="M116.356 114.653C111.849 116.562 107.337 118.472 102.828 120.383C102.472 116.767 102.117 113.149 101.759 109.533C106.209 110.19 110.659 110.848 115.109 111.504C115.524 112.555 115.941 113.602 116.356 114.653Z" fill="#5B85AA"/>
<path d="M72.1248 83.7141C71.8877 86.0866 71.0451 87.4676 70.4587 88.2145C66.8576 92.8066 58.3259 92.1012 51.1131 91.505C49.574 91.3793 48.3292 91.2162 47.5776 91.1129C49.411 77.9508 51.2444 64.7872 53.0777 51.626C53.0142 50.0192 52.9507 48.4123 52.8872 46.8055C55.0635 46.1572 57.2398 45.5096 59.4162 44.862C60.0555 45.5261 64.0885 49.6842 65.6509 48.7273C65.9621 48.5372 66.4765 47.9591 66.1949 45.7717C67.3318 46.2059 70.0099 47.4175 71.5934 50.2514C72.0189 51.014 72.2878 51.7549 72.4614 52.4116C72.889 59.0439 73.1939 73.0651 72.1248 83.7141Z" fill="#82CDDE"/>
<path d="M45.7438 103.839H43.6479V79.179H45.7438V103.839Z" fill="#011531"/>
<path d="M62.278 103.839H60.1821V76.6277H62.278V103.839Z" fill="#011531"/>
<path d="M66.436 79.4569H38.8022V76.1837H66.436V79.4569Z" fill="#011531"/>
<path d="M52.2369 71.221C49.834 72.0811 47.4164 72.9296 45.0135 73.787C44.931 72.5441 44.8632 70.7868 45.0516 68.6682C45.1405 67.4632 45.3099 66.1616 45.5936 64.7705C46.0975 62.1393 47.0057 59.2093 48.5321 56.2156C51.045 51.2704 54.2862 47.9699 56.5133 46.0554C57.25 46.373 59.293 47.3496 60.4129 49.5807C61.7869 52.3223 61.2174 55.8328 58.986 58.4931C56.7356 62.7445 54.4979 66.9803 52.2369 71.221Z" fill="#FFD1C3"/>
<path d="M54.5637 66.6297C51.3796 67.3004 48.221 67.9884 45.0518 68.6682C45.1407 67.4632 45.31 66.1616 45.5937 64.7705C48.5851 65.4033 51.5617 66.0069 54.5637 66.6297Z" fill="#011531"/>
<path d="M56.0391 66.642C52.0591 66.5279 48.0769 66.4129 44.0947 66.2971C46.1313 60.8309 48.1658 55.3647 50.2003 49.8983C51.7648 46.32 55.9163 44.9044 58.9034 46.3795C62.079 47.9485 63.4107 52.5215 61.0565 55.9617C59.3841 59.5226 57.7116 63.0811 56.0391 66.642Z" fill="#82CDDE"/>
<path d="M47.2133 69.3537C46.5401 69.9641 43.6271 72.7112 44.1606 75.737C44.7322 78.9715 48.8731 80.4451 51.8963 81.4829C54.9512 82.5306 61.1562 84.0524 69.8911 81.98C69.9652 79.6322 70.0415 77.2818 70.1156 74.934C62.4815 73.0759 54.8474 71.2144 47.2133 69.3537Z" fill="#FFD1C3"/>
<path d="M80.5868 81.6838C77.8367 81.7492 75.0888 81.8144 72.3388 81.8782C72.0128 77.2289 71.6846 72.5822 71.3564 67.9313H81.3108C81.0695 72.5145 80.8281 77.0983 80.5868 81.6838Z" fill="#ABEFF4"/>
<path d="M81.9162 69.7985H70.6196V67.5394H81.9162V69.7985Z" fill="#011531"/>
<path d="M80.6881 67.9313H71.6187V66.642H80.6881V67.9313Z" fill="#011531"/>
<path d="M73.9663 75.6056C72.6135 75.2798 71.2607 74.9514 69.9058 74.6256C70.3969 74.2634 70.9728 73.8929 71.6354 73.5523C73.3142 72.6881 78.158 71.9281 78.4693 72.4995C78.6513 72.8344 78.6577 73.4142 78.2956 73.8021C77.9252 74.1931 77.3874 74.151 77.3154 74.1453C76.1976 74.6316 75.082 75.1185 73.9663 75.6056Z" fill="#FFD1C3"/>
<path d="M67.7551 39.1477L66.4997 44.4915C65.3205 44.2394 63.9063 42.9649 62.9473 41.1276C62.2084 39.7299 61.893 38.3142 61.9882 37.2301C62.0517 36.3981 62.3503 35.7522 62.9007 35.4685C64.1413 34.8103 66.1694 36.1781 67.4566 38.5359L67.5518 38.7078L67.7551 39.1477Z" fill="#011531"/>
<path d="M71.2205 33.832L71.2035 34.2108C71.068 37.1009 70.1831 41.0994 68.0152 42.1141L67.4606 42.3002C65.2949 42.7765 62.82 40.3163 61.2936 37.4583L60.9994 36.8744C60.8109 36.5204 60.6649 36.169 60.5188 35.8051C60.3304 35.3165 60.1716 34.8442 60.0509 34.3695C59.7461 33.1903 59.3226 31.4313 60.2372 29.7069C61.4249 27.4684 63.9823 26.9408 64.7804 26.8233C65.2123 26.7598 66.7005 26.5365 68.1719 27.1252C68.644 27.3155 69.1013 27.5884 69.5184 27.9564C70.2995 28.6484 70.7145 29.5029 70.9262 30.3958L70.9791 30.6249C71.0849 31.0716 71.1379 31.5181 71.1612 31.9523C71.1866 32.3037 71.1993 32.6403 71.2099 32.9661C71.2226 33.2373 71.2205 33.521 71.2205 33.832Z" fill="#FFD1C3"/>
<path d="M65.8033 36.1252C65.8012 36.4676 65.6424 36.7455 65.4498 36.743C65.255 36.743 65.1004 36.4635 65.1026 36.1201C65.1047 35.7778 65.2614 35.5001 65.4561 35.5001C65.6488 35.5024 65.8033 35.7821 65.8033 36.1252Z" fill="#011531"/>
<path d="M70.3692 36.1483C70.3671 36.4906 70.2083 36.7686 70.0157 36.7686C69.823 36.7661 69.6664 36.4866 69.6685 36.1443C69.6706 35.8011 69.8272 35.5231 70.022 35.5231C70.2147 35.5257 70.3692 35.8051 70.3692 36.1483Z" fill="#011531"/>
<path d="M67.4311 38.7732C67.1918 38.765 67.0797 38.6401 67.086 38.4936L67.3612 38.2423C67.5624 38.2588 67.7105 38.2124 67.7444 38.1868L67.5369 37.8775C67.3189 37.4922 67.1389 37.169 67.1156 37.1217C66.8468 36.6139 67.0796 35.8854 67.8524 34.8252L68.2228 34.7657L68.28 35.1336C67.4649 36.2559 67.4925 36.7049 67.5835 36.8745C67.6089 36.9208 67.7846 37.2384 67.9773 37.579C68.2123 37.9942 68.3202 38.1843 68.2165 38.415C68.0852 38.7178 67.7021 38.7732 67.4311 38.7732Z" fill="#011531"/>
<path d="M65.2883 39.0419C65.0385 39.4314 66.0844 41.0067 67.1492 40.9093C67.651 40.863 68.1992 40.4453 68.1675 40.0896C68.1611 40.0326 68.1273 39.8101 67.3842 39.4678C66.9523 39.2669 65.5233 38.6756 65.2883 39.0419Z" fill="white"/>
<path d="M66.2903 34.3465L66.1421 34.3018C65.8986 34.1371 65.6171 34.0313 65.327 33.9991C64.9375 33.961 64.6114 34.0586 64.4103 34.1521L64.061 34.0204L64.1923 33.669C64.4527 33.5509 64.8634 33.4169 65.3842 33.4738C65.761 33.5145 66.123 33.65 66.4385 33.8634L66.5105 34.2298L66.2903 34.3465Z" fill="#011531"/>
<path d="M71.0134 34.7002L70.8652 34.6555C70.6958 34.5414 70.4185 34.3977 70.0523 34.3547C69.6564 34.3149 69.3346 34.4142 69.1335 34.5052L68.7842 34.3736L68.9154 34.0221C69.1737 33.9063 69.595 33.7749 70.1073 33.8295C70.5837 33.8807 70.9436 34.0668 71.1616 34.2173L71.2336 34.5838L71.0134 34.7002Z" fill="#011531"/>
<path d="M71.4151 27.1682C72.5838 28.0762 72.7383 30.5985 71.6417 31.7364C71.1759 32.2169 70.1089 32.3419 67.9898 32.5701C65.3392 32.8561 64.0012 32.7909 63.3428 33.7236C63.0909 34.0802 63.0189 34.4646 62.9978 34.7318C62.7712 34.2406 62.3415 33.9254 61.9181 33.9462C61.3274 33.9743 60.9083 34.645 60.885 35.1742C60.8426 36.226 62.3605 36.9993 62.2124 37.2367C62.1361 37.3565 61.6683 37.2722 61.266 37.0563C59.492 36.1161 58.9309 32.6742 59.8222 30.0817C59.945 29.7243 60.1186 29.2315 60.5102 28.6743C61.8736 26.7283 64.2024 26.3934 64.5369 26.3495C65.7817 26.1882 65.7182 26.6059 68.4005 26.8085C70.4794 26.9656 70.8689 26.7431 71.4151 27.1682Z" fill="#011531"/>
<path d="M69.4759 33.6841C68.3158 33.6841 67.0582 33.2903 65.9426 32.3815L65.9023 32.011L66.2749 31.9731C68.4428 33.7288 71.1674 33.3771 72.3551 31.9415C73.2908 30.8127 73.53 28.7628 72.3953 27.5099C71.468 26.4885 70.0179 26.4017 69.0525 26.639C68.1803 26.8549 67.5748 27.3569 67.2191 27.7413L66.8444 27.7564L66.8296 27.3816C67.234 26.9457 67.9262 26.3727 68.9276 26.1262C70.0306 25.8502 71.7031 25.9577 72.787 27.1543C74.1059 28.6097 73.8392 30.9806 72.7616 32.2824C72.0397 33.1548 70.8224 33.6841 69.4759 33.6841Z" fill="#011531"/>
<path d="M57.1063 66.9829L56.8438 66.6827L58.8972 52.0808L59.1958 51.8566L59.4202 52.1553L57.3688 66.7561L57.1063 66.9829Z" fill="#011531"/>
<path d="M77.2372 83.4891C75.2578 83.7588 72.73 83.8894 69.8402 83.5172C68.3752 83.3288 67.0521 83.0386 65.894 82.7142C66.8742 80.015 67.8566 77.3208 68.8389 74.6256H79.1383H79.892C80.074 75.5015 80.3471 77.4324 79.5977 79.6784C78.9562 81.6079 77.8596 82.8673 77.2372 83.4891Z" fill="#FFD1C3"/>
<path d="M98.0649 60.8773L97.8003 60.6101C97.8024 60.2653 97.8744 59.588 98.3401 58.9364C98.789 58.3112 99.3796 58.0258 99.6909 57.9092L100.032 58.0656L99.875 58.4046C99.621 58.4996 99.1383 58.7346 98.7699 59.2474C98.3888 59.7766 98.3296 60.3315 98.3296 60.6152L98.0649 60.8773Z" fill="#011531"/>
<path d="M77.8684 139.835C77.6122 139.835 77.4047 140.044 77.4047 140.3C77.4047 140.557 77.6122 140.764 77.8684 140.764C78.1245 140.764 78.3341 140.557 78.3341 140.3C78.3341 140.044 78.1245 139.835 77.8684 139.835ZM77.8684 141.293C77.3222 141.293 76.8755 140.849 76.8755 140.3C76.8755 139.752 77.3222 139.306 77.8684 139.306C78.4167 139.306 78.8634 139.752 78.8634 140.3C78.8634 140.849 78.4167 141.293 77.8684 141.293Z" fill="#011531"/>
<path d="M111.243 121.962C110.987 121.962 110.78 122.172 110.78 122.428C110.78 122.684 110.987 122.89 111.243 122.89C111.502 122.89 111.709 122.684 111.709 122.428C111.709 122.172 111.502 121.962 111.243 121.962ZM111.243 123.419C110.697 123.419 110.25 122.974 110.25 122.428C110.25 121.88 110.697 121.433 111.243 121.433C111.792 121.433 112.238 121.88 112.238 122.428C112.238 122.974 111.792 123.419 111.243 123.419Z" fill="#011531"/>
<path d="M49.8066 71.5345L49.5483 71.3268L49.7495 71.0118L52.4826 70.3932L52.798 70.5941L52.5969 70.9117L49.8638 71.5277L49.8066 71.5345Z" fill="#011531"/>
<path d="M47.9671 173.212C45.2171 173.278 42.4692 173.343 39.7191 173.409C39.391 168.758 39.065 164.111 38.7368 159.462H48.6912C48.4498 164.045 48.2085 168.628 47.9671 173.212Z" fill="#ABEFF4"/>
<path d="M49.2966 161.329H38V159.068H49.2966V161.329Z" fill="#011531"/>
<path d="M48.0686 159.462H38.9971V158.17H48.0686V159.462Z" fill="#011531"/>
<path d="M145.271 71.1896H117.629C115.461 71.1896 113.704 69.4322 113.704 67.2665V46.1721C113.704 44.0061 115.461 42.2498 117.629 42.2498H145.271C147.439 42.2498 149.196 44.0061 149.196 46.1721V67.2665C149.196 69.4322 147.439 71.1896 145.271 71.1896Z" fill="#011531"/>
<path d="M153.368 53.5271C153.385 55.6061 153.402 57.6869 153.419 59.7633C155.989 61.0915 158.559 62.4162 161.129 63.7419V49.1061C158.542 50.5798 155.957 52.0534 153.368 53.5271Z" fill="#011531"/>
<path d="M154.533 61.4513H148.394V51.9709H154.533V61.4513Z" fill="#011531"/>
<path d="M112.761 72.5996C111.25 72.5996 110.011 71.3632 110.011 69.8491V41.6568C110.011 40.1451 111.25 38.9064 112.761 38.9064C114.275 38.9064 115.513 40.1451 115.513 41.6568V69.8491C115.513 71.3632 114.275 72.5996 112.761 72.5996Z" fill="#011531"/>
<path d="M128.561 43.7036H119.18V38.4978H128.561V43.7036Z" fill="#011531"/>
<path d="M143.555 45.7999H134.175V40.5941H143.555V45.7999Z" fill="#011531"/>
<path d="M114.593 67.4657L114.328 67.2011V43.7036L114.593 43.439L114.857 43.7036V67.2011L114.593 67.4657Z" fill="white"/>
<path d="M137.507 48.2131H118.45L118.185 47.9485L118.45 47.6838H137.507L137.772 47.9485L137.507 48.2131Z" fill="white"/>
<path d="M147.182 61.7159L146.917 61.4513V50.7957L147.182 50.5311L147.447 50.7957V61.4513L147.182 61.7159Z" fill="white"/>
<path d="M145.463 61.7159L145.199 61.4513V50.7957L145.463 50.5311L145.728 50.7957V61.4513L145.463 61.7159Z" fill="white"/>
<path d="M118.714 63.4772H135.278V53.6156H118.714V63.4772ZM135.543 64.0065H118.45L118.185 63.7419V53.351L118.45 53.0864H135.543L135.807 53.351V63.7419L135.543 64.0065Z" fill="white"/>
<path d="M131.059 50.8254H136.259V49.881H131.059V50.8254ZM136.523 51.3546H130.794L130.53 51.09V49.6163L130.794 49.3517H136.523L136.788 49.6163V51.09L136.523 51.3546Z" fill="white"/>
<path d="M110.771 174.476C110.398 174.435 110.125 174.097 110.166 173.722L121.534 69.5233C121.574 69.1503 121.913 68.88 122.288 68.9179C122.662 68.9602 122.933 69.2991 122.893 69.6739L111.525 173.87C111.484 174.243 111.146 174.516 110.771 174.476Z" fill="#011531"/>
<path d="M120.082 101.214L117.478 100.93L118.553 91.0816L121.157 91.3653L120.082 101.214Z" fill="#011531"/>
<path d="M114.984 147.952L112.38 147.668L113.454 137.819L116.058 138.103L114.984 147.952Z" fill="#011531"/>
<path d="M149.314 174.476C149.687 174.435 149.96 174.097 149.92 173.722L138.551 69.5233C138.509 69.1503 138.17 68.88 137.797 68.9179C137.423 68.9602 137.149 69.2991 137.192 69.6739L148.56 173.87C148.601 174.243 148.939 174.516 149.314 174.476Z" fill="#011531"/>
<path d="M140.003 101.214L142.607 100.93L141.532 91.0816L138.928 91.3653L140.003 101.214Z" fill="#011531"/>
<path d="M145.103 147.952L147.707 147.668L146.632 137.819L144.028 138.103L145.103 147.952Z" fill="#011531"/>
</svg>
