<svg width="108" height="48" viewBox="0 0 108 48" fill="none" xmlns="http://www.w3.org/2000/svg">
  <path d="M18 13.4167L26 13.4167" stroke="white" stroke-width="2" stroke-linecap="round" />
  <path d="M18 28.75L24 28.75" stroke="white" stroke-width="2" stroke-linecap="round" />
  <path d="M18 21.0833L30 21.0833" stroke="white" stroke-width="2" stroke-linecap="round" />
  <path
    d="M38 21.0833V17.75C38 12.0931 38 9.26472 36.2426 7.50736C34.4853 5.75 31.6569 5.75 26 5.75H22C16.3431 5.75 13.5147 5.75 11.7574 7.50736C10 9.26472 10 12.0931 10 17.75V28.25C10 33.9069 10 36.7353 11.7574 38.4926C13.5147 40.25 16.3431 40.25 22 40.25H24"
    stroke="white" stroke-width="2" stroke-linecap="round" />
  <ellipse cx="35" cy="33.5417" rx="5" ry="4.79167" stroke="white" stroke-width="2" stroke-linecap="round" />
  <path d="M42 40.25L39 37.375" stroke="white" stroke-width="2" stroke-linecap="round" />
  <path
    d="M53.1328 5.875H55.125L68.625 37.2812L82.125 5.875H84.1172L69.3516 40H67.875L53.1328 5.875ZM52.5469 5.875H54.3281L54.4453 24.1328V40H52.5469V5.875ZM82.9688 5.875H84.75V40H82.8516V24.1328L82.9688 5.875ZM92.3942 40H84.3083L84.3551 38.2656H92.3942C94.8473 38.2656 97.0036 37.6953 98.8629 36.5547C100.738 35.4141 102.207 33.8359 103.269 31.8203C104.332 29.7891 104.863 27.4531 104.863 24.8125V20.9922C104.863 19.0234 104.558 17.2188 103.949 15.5781C103.34 13.9375 102.48 12.5234 101.371 11.3359C100.277 10.1484 98.9723 9.23437 97.4567 8.59375C95.9411 7.9375 94.2848 7.60938 92.4879 7.60938H84.1676V5.875H92.4879C94.5348 5.875 96.4254 6.24219 98.1598 6.97656C99.9098 7.69531 101.425 8.72656 102.707 10.0703C103.988 11.3984 104.98 13 105.683 14.875C106.402 16.7344 106.761 18.7969 106.761 21.0625V24.8125C106.761 27.0781 106.402 29.1484 105.683 31.0234C104.98 32.8828 103.98 34.4844 102.683 35.8281C101.402 37.1562 99.8864 38.1875 98.1364 38.9219C96.402 39.6406 94.4879 40 92.3942 40ZM84.8942 5.875V40H82.9958V5.875H84.8942Z"
    fill="white" />
</svg>